<?xml version="1.0" standalone="no"?>
<!DOCTYPE svg PUBLIC "-//W3C//DTD SVG 20010904//EN"
 "http://www.w3.org/TR/2001/REC-SVG-20010904/DTD/svg10.dtd">
<svg version="1.0" xmlns="http://www.w3.org/2000/svg"
 width="3003.000000pt" height="2014.000000pt" viewBox="0 0 3003.000000 2014.000000"
 preserveAspectRatio="xMidYMid meet">

<g transform="translate(0.000000,2014.000000) scale(0.100000,-0.100000)"
fill="#000000" stroke="none">
<path d="M14850 17009 c-191 -18 -361 -68 -525 -153 -129 -67 -193 -110 -293
-196 -310 -269 -492 -670 -492 -1083 1 -390 145 -742 415 -1013 215 -215 455
-344 752 -404 160 -32 143 -52 143 171 l0 191 -302 316 c-408 427 -381 395
-375 449 8 76 80 125 148 101 19 -6 119 -104 270 -262 132 -138 245 -252 250
-254 5 -2 9 242 9 625 0 482 3 634 13 653 7 13 28 35 47 48 48 32 94 25 138
-23 l32 -35 0 -381 c0 -209 4 -379 8 -377 5 2 113 114 240 250 196 209 238
248 267 254 46 8 77 0 107 -31 32 -32 42 -77 24 -119 -7 -17 -156 -184 -330
-369 l-316 -338 0 -445 0 -444 29 0 c15 0 66 7 112 15 313 54 619 221 821 445
332 371 452 852 332 1331 -115 463 -468 847 -921 1004 -120 41 -214 61 -358
75 -120 11 -122 11 -245 -1z"/>
<path d="M7490 13729 c-2593 -582 -4751 -1070 -4795 -1085 -437 -152 -738
-531 -795 -1004 -14 -120 -14 -6172 1 -6295 40 -343 207 -638 474 -837 71 -53
235 -140 320 -169 33 -11 2754 -625 6046 -1364 4600 -1032 6013 -1346 6103
-1355 86 -8 146 -9 229 0 84 8 1613 347 6087 1351 3286 737 6011 1352 6055
1366 96 31 248 110 330 171 265 198 432 490 474 832 8 58 11 1063 11 3160 0
3336 2 3167 -54 3360 -106 361 -384 654 -742 781 -44 16 -2189 501 -4765 1079
-2576 578 -4691 1053 -4701 1056 -13 4 -23 -17 -53 -108 -136 -409 -358 -775
-660 -1086 -230 -237 -442 -400 -710 -544 -1019 -547 -2249 -438 -3155 280
-117 93 -373 348 -464 462 -205 258 -361 543 -471 861 l-50 146 -4715 -1058z
m4453 -2273 c50 -21 94 -77 106 -138 8 -37 10 -600 8 -1893 -2 -1830 -3 -1840
-23 -1930 -107 -454 -351 -790 -699 -962 -188 -92 -354 -126 -615 -126 -446 1
-739 77 -1025 268 -149 99 -342 285 -387 373 -23 47 -23 105 2 156 27 56 492
520 542 540 44 19 102 20 140 3 15 -7 83 -66 151 -132 187 -182 303 -239 484
-239 82 0 98 4 157 33 113 55 189 163 239 338 l22 78 5 1766 5 1766 29 37 c56
74 65 76 469 76 278 0 365 -3 390 -14z m1462 -8 c34 -18 66 -51 86 -88 12 -21
15 -289 19 -1590 6 -1540 6 -1566 27 -1645 95 -371 313 -600 658 -692 92 -24
116 -26 290 -27 164 0 201 3 270 22 356 97 625 400 701 792 18 90 19 178 20
1600 1 982 5 1514 12 1531 20 51 62 88 117 104 45 13 110 15 397 13 l343 -3
47 -27 c32 -19 52 -41 67 -72 l22 -43 -4 -1594 c-3 -1583 -3 -1595 -25 -1704
-101 -519 -325 -891 -733 -1219 -152 -122 -268 -191 -442 -262 -267 -111 -680
-175 -970 -153 -397 31 -835 219 -1133 486 -342 308 -562 688 -646 1118 -22
109 -22 122 -25 1710 -3 1449 -2 1604 12 1642 19 48 72 100 113 109 15 3 32 7
37 9 6 2 168 3 360 2 304 -2 354 -4 380 -19z m10727 -6 c21 -13 46 -35 56 -50
10 -15 200 -515 422 -1112 222 -597 621 -1670 886 -2385 333 -894 484 -1312
484 -1339 0 -53 -38 -116 -88 -144 -39 -22 -45 -22 -411 -22 -305 0 -377 3
-400 14 -34 18 -87 77 -96 108 -4 13 -47 132 -96 266 -55 150 -92 265 -95 301
-8 73 13 143 61 198 35 41 129 97 199 119 34 10 -164 13 -1109 13 l-1150 1
-170 -461 c-93 -253 -179 -473 -190 -489 -11 -16 -36 -38 -56 -49 -35 -20 -52
-21 -409 -21 l-373 0 -41 24 c-49 29 -86 89 -86 141 0 24 152 447 439 1218
1142 3070 1331 3578 1345 3606 19 35 59 66 106 80 22 6 170 9 385 8 347 -2
350 -2 387 -25z m-4345 -7 c284 -38 610 -140 865 -272 110 -56 329 -200 429
-281 107 -86 131 -150 90 -237 -23 -49 -513 -539 -554 -555 -43 -15 -108 -12
-143 8 -17 9 -67 41 -110 70 -135 90 -345 189 -474 222 -186 48 -320 63 -510
57 -234 -8 -391 -47 -588 -146 -161 -81 -276 -164 -407 -296 -268 -268 -409
-569 -446 -951 -53 -561 207 -1090 696 -1413 182 -120 383 -203 575 -237 190
-33 563 -3 746 60 90 30 289 132 391 198 145 95 219 117 281 84 48 -26 530
-518 547 -558 37 -91 9 -151 -117 -248 -152 -118 -278 -196 -451 -280 -200
-97 -318 -141 -511 -190 -207 -52 -347 -71 -572 -77 -560 -16 -959 100 -1479
429 -346 220 -606 507 -806 891 -153 296 -234 542 -286 872 -21 136 -24 512
-4 655 39 288 122 558 245 803 399 796 1097 1283 1996 1392 151 18 455 18 597
0z m-12462 -60 c17 -3 47 -19 68 -36 64 -53 68 -85 65 -481 -3 -388 -5 -396
-81 -446 l-41 -27 -568 -3 -568 -2 0 -1897 0 -1897 -21 -43 c-14 -29 -35 -52
-63 -68 l-43 -25 -373 0 -373 0 -41 24 c-23 13 -51 42 -64 64 l-22 40 0 1659
c0 1808 -3 1709 56 1826 58 116 174 212 321 267 l78 29 -215 0 c-288 1 -1327
21 -1368 27 -40 6 -100 57 -118 101 -11 25 -14 113 -14 395 0 345 1 364 21
404 12 26 36 53 57 66 l37 23 1410 5 c1413 5 1804 4 1860 -5z m1494 -13 c19
-9 48 -34 65 -55 l31 -39 0 -2353 0 -2353 -31 -39 c-59 -74 -54 -73 -467 -73
-347 0 -370 1 -407 20 -45 23 -73 60 -89 115 -16 57 -16 4603 0 4660 15 54 43
92 87 115 35 18 61 19 407 20 333 0 373 -2 404 -18z m10554 -6077 c211 -44
368 -205 423 -430 23 -94 23 -269 0 -355 -57 -218 -207 -370 -411 -420 -71
-17 -238 -14 -309 5 -145 39 -281 146 -345 274 -98 193 -96 460 5 651 115 219
374 331 637 275z m1533 0 c179 -34 296 -136 323 -281 15 -79 8 -84 -113 -84
-113 0 -120 3 -146 68 -20 50 -71 89 -136 102 -139 29 -254 -26 -254 -122 0
-83 29 -100 278 -164 203 -53 267 -81 330 -144 77 -76 105 -174 82 -286 -41
-199 -207 -306 -477 -305 -192 0 -319 45 -412 146 -50 54 -79 115 -91 188 -12
79 -13 78 113 75 l111 -3 34 -68 c52 -103 114 -137 249 -138 123 -1 204 39
223 112 9 34 8 46 -7 76 -26 53 -94 86 -273 133 -227 60 -322 111 -380 205
-48 78 -46 223 5 311 88 151 308 224 541 179z m-11567 -29 c17 -21 421 -1106
421 -1132 0 -30 -16 -34 -130 -34 -75 0 -102 4 -114 15 -8 8 -27 53 -42 100
l-28 85 22 30 23 30 -257 -2 -256 -3 -43 -119 c-24 -65 -49 -123 -57 -127 -7
-5 -59 -9 -115 -9 -91 0 -103 2 -113 19 -8 15 32 130 201 578 117 307 216 564
222 571 14 18 250 17 266 -2z m1159 2 c9 -9 12 -129 12 -480 l0 -468 269 0
c148 0 276 -3 285 -6 13 -5 16 -24 16 -104 0 -80 -3 -99 -16 -104 -20 -8 -778
-8 -798 0 -14 6 -16 66 -16 583 0 318 3 581 7 584 12 13 228 8 241 -5z m1340
0 c17 -17 17 -1139 0 -1156 -19 -19 -212 -16 -232 4 -14 14 -16 80 -16 578 0
424 3 565 12 574 8 8 49 12 118 12 69 0 110 -4 118 -12z m970 -1 c9 -11 272
-771 272 -786 0 -20 22 27 43 94 14 44 71 221 127 393 l101 312 174 0 c162 0
175 -1 185 -19 6 -13 10 -210 10 -571 0 -361 -4 -558 -10 -571 -10 -17 -22
-19 -113 -19 -67 0 -107 4 -115 12 -9 9 -12 116 -13 418 l0 405 -140 -405
c-77 -222 -145 -410 -151 -417 -15 -18 -181 -18 -196 0 -6 7 -74 193 -151 413
l-140 399 0 -393 c-1 -251 -5 -400 -11 -413 -10 -17 -22 -19 -115 -19 -93 0
-105 2 -115 19 -15 30 -14 1133 2 1149 18 18 342 17 356 -1z m2370 1 c8 -8 12
-45 12 -100 0 -76 -2 -89 -19 -98 -12 -6 -129 -10 -310 -10 l-291 0 0 -125 0
-125 273 0 c199 0 276 -3 285 -12 7 -7 12 -42 12 -88 0 -46 -5 -81 -12 -88 -9
-9 -86 -12 -285 -12 l-273 0 0 -145 0 -145 299 0 c165 0 306 -3 315 -6 13 -5
16 -24 16 -104 0 -80 -3 -99 -16 -104 -9 -3 -203 -6 -433 -6 -311 0 -420 3
-429 12 -9 9 -12 152 -12 583 0 315 3 575 7 578 3 4 196 7 428 7 314 0 424 -3
433 -12z m1072 -386 l245 -392 5 392 5 393 115 0 115 0 3 -574 c1 -423 -1
-577 -9 -588 -9 -10 -39 -13 -131 -11 l-120 3 -242 389 -241 389 -5 -379 c-3
-209 -9 -385 -13 -391 -6 -9 -40 -13 -112 -13 -93 0 -105 2 -115 19 -16 30
-14 1133 2 1149 9 9 48 12 133 10 l120 -3 245 -393z m1948 386 c7 -7 12 -44
12 -94 0 -117 5 -114 -196 -114 l-164 0 0 -468 c0 -351 -3 -471 -12 -480 -19
-19 -212 -16 -232 4 -14 13 -16 65 -16 417 0 375 2 405 20 444 11 25 33 51 52
63 l33 20 -208 0 c-124 0 -216 4 -228 10 -17 9 -19 22 -19 98 0 55 4 92 12
100 17 17 929 17 946 0z"/>
<path d="M23653 9722 c-34 -92 -138 -375 -232 -628 -187 -505 -193 -529 -148
-594 12 -18 35 -43 50 -54 28 -21 37 -21 610 -23 l582 -2 -68 20 c-38 11 -85
28 -106 38 -45 23 -112 95 -140 148 -11 22 -122 311 -246 644 -125 332 -230
607 -233 611 -4 4 -35 -68 -69 -160z"/>
<path d="M19130 5065 c-64 -20 -123 -75 -159 -145 -41 -84 -54 -156 -49 -275
9 -169 64 -274 173 -330 52 -27 68 -30 144 -30 73 1 94 5 137 28 97 50 152
141 175 288 20 132 -17 296 -87 377 -59 70 -114 95 -208 99 -51 2 -98 -3 -126
-12z"/>
<path d="M9200 4978 c0 -3 -34 -99 -75 -214 -41 -115 -75 -210 -75 -211 0 -2
68 -3 150 -3 83 0 150 2 150 4 0 7 -142 421 -146 425 -2 2 -4 2 -4 -1z"/>
<path d="M14721 13879 c-221 -20 -481 -78 -687 -154 -178 -66 -431 -195 -542
-278 l-33 -25 103 -67 c158 -102 399 -217 589 -280 214 -70 383 -105 637 -129
l52 -5 0 474 c0 374 -3 475 -12 474 -7 -1 -55 -6 -107 -10z"/>
<path d="M15090 13415 l0 -476 68 6 c398 36 727 130 1051 301 116 62 281 165
281 177 0 16 -206 141 -343 207 -296 144 -597 221 -984 255 l-73 6 0 -476z"/>
</g>
</svg>
